<svg width="32" height="33" viewBox="0 0 32 33" fill="none" xmlns="http://www.w3.org/2000/svg">
<path d="M31.65 16.5C31.6515 16.8352 31.5687 17.1654 31.4093 17.4603C31.2498 17.7552 31.0188 18.0052 30.7375 18.1875L19.5875 25.35C19.2849 25.546 18.935 25.6567 18.5747 25.6701C18.2144 25.6836 17.8572 25.5994 17.5408 25.4265C17.2244 25.2536 16.9607 24.9984 16.7775 24.6878C16.5942 24.3773 16.4984 24.023 16.5 23.6625V18.3375L5.5875 25.35C5.28492 25.546 4.93497 25.6567 4.57468 25.6701C4.21439 25.6836 3.85716 25.5994 3.54078 25.4265C3.22441 25.2536 2.96067 24.9984 2.77745 24.6878C2.59424 24.3773 2.49838 24.023 2.5 23.6625V9.3375C2.49838 8.97696 2.59424 8.62269 2.77745 8.31216C2.96067 8.00164 3.22441 7.74642 3.54078 7.5735C3.85716 7.40059 4.21439 7.31641 4.57468 7.32988C4.93497 7.34334 5.28492 7.45395 5.5875 7.65L16.5 14.6625V9.3375C16.4984 8.97696 16.5942 8.62269 16.7775 8.31216C16.9607 8.00164 17.2244 7.74642 17.5408 7.5735C17.8572 7.40059 18.2144 7.31641 18.5747 7.32988C18.935 7.34334 19.2849 7.45395 19.5875 7.65L30.7375 14.8125C31.0188 14.9948 31.2498 15.2448 31.4093 15.5397C31.5687 15.8346 31.6515 16.1648 31.65 16.5Z" fill="white"/>
</svg>
