<svg width="32" height="33" viewBox="0 0 32 33" fill="none" xmlns="http://www.w3.org/2000/svg">
<path d="M0.349987 16.5C0.34848 16.8352 0.431253 17.1654 0.5907 17.4603C0.750149 17.7552 0.981155 18.0052 1.26249 18.1875L12.4125 25.35C12.7151 25.546 13.065 25.6567 13.4253 25.6701C13.7856 25.6836 14.1428 25.5994 14.4592 25.4265C14.7756 25.2536 15.0393 24.9984 15.2225 24.6878C15.4058 24.3773 15.5016 24.023 15.5 23.6625V18.3375L26.4125 25.35C26.7151 25.546 27.065 25.6567 27.4253 25.6701C27.7856 25.6836 28.1428 25.5994 28.4592 25.4265C28.7756 25.2536 29.0393 24.9984 29.2225 24.6878C29.4058 24.3773 29.5016 24.023 29.5 23.6625V9.3375C29.5016 8.97696 29.4058 8.62269 29.2225 8.31216C29.0393 8.00164 28.7756 7.74642 28.4592 7.5735C28.1428 7.40059 27.7856 7.31641 27.4253 7.32988C27.065 7.34334 26.7151 7.45395 26.4125 7.65L15.5 14.6625V9.3375C15.5016 8.97696 15.4058 8.62269 15.2225 8.31216C15.0393 8.00164 14.7756 7.74642 14.4592 7.5735C14.1428 7.40059 13.7856 7.31641 13.4253 7.32988C13.065 7.34334 12.7151 7.45395 12.4125 7.65L1.26249 14.8125C0.981155 14.9948 0.750149 15.2448 0.5907 15.5397C0.431253 15.8346 0.34848 16.1648 0.349987 16.5Z" fill="white"/>
</svg>
