<svg width="32" height="33" viewBox="0 0 32 33" fill="none" xmlns="http://www.w3.org/2000/svg">
<path d="M27 6.5V26.5C27 27.0304 26.7893 27.5391 26.4142 27.9142C26.0391 28.2893 25.5304 28.5 25 28.5H20.5C19.9696 28.5 19.4609 28.2893 19.0858 27.9142C18.7107 27.5391 18.5 27.0304 18.5 26.5V6.5C18.5 5.96957 18.7107 5.46086 19.0858 5.08579C19.4609 4.71071 19.9696 4.5 20.5 4.5H25C25.5304 4.5 26.0391 4.71071 26.4142 5.08579C26.7893 5.46086 27 5.96957 27 6.5ZM11.5 4.5H7C6.46957 4.5 5.96086 4.71071 5.58579 5.08579C5.21071 5.46086 5 5.96957 5 6.5V26.5C5 27.0304 5.21071 27.5391 5.58579 27.9142C5.96086 28.2893 6.46957 28.5 7 28.5H11.5C12.0304 28.5 12.5391 28.2893 12.9142 27.9142C13.2893 27.5391 13.5 27.0304 13.5 26.5V6.5C13.5 5.96957 13.2893 5.46086 12.9142 5.08579C12.5391 4.71071 12.0304 4.5 11.5 4.5Z" fill="black"/>
</svg>
