<svg width="1512" height="982" viewBox="0 0 1512 982" fill="none" xmlns="http://www.w3.org/2000/svg">
<path d="M-89.3204 6.42583C-161.007 -6.41581 -235.352 4.55617 -300.405 37.2972C-327.072 50.7187 -344.882 77.2866 -346.979 107.069L-352.578 186.599C-357.102 250.854 -359.364 282.982 -377.62 307.107C-395.876 331.233 -426.179 342.139 -486.784 363.952L-556.123 388.908C-584.47 399.11 -605.219 423.715 -610.531 453.372C-623.371 525.063 -612.63 599.08 -579.89 664.138C-566.315 691.113 -539.327 708.745 -509.173 710.342L-434.251 714.308C-368.522 717.788 -335.658 719.528 -310.941 737.966C-286.224 756.404 -275.189 787.412 -253.12 849.426L-227.964 920.115C-217.839 948.565 -193.247 969.409 -163.523 974.734C-91.8366 987.575 -17.9193 976.818 47.1339 944.077C74.107 930.502 91.7381 903.513 93.334 873.357L97.2991 798.431C100.778 732.698 102.517 699.832 120.953 675.114C139.39 650.396 170.395 639.361 232.406 617.291L303.09 592.135C331.538 582.01 352.381 557.417 357.704 527.692C370.544 456.001 359.786 382.079 327.046 317.022C313.471 290.047 286.483 272.414 256.329 270.818L181.407 266.851C115.678 263.371 82.814 261.631 58.097 243.193C33.3801 224.755 22.3455 193.748 0.276135 131.733L-24.8799 61.0449C-35.0047 32.5944 -59.5968 11.7504 -89.3204 6.42583Z" fill="url(#paint0_linear_430_53)"/>
<path d="M1674.86 6.42363C1603.17 -6.41373 1528.83 4.56268 1463.78 37.3076C1437.11 50.7307 1419.3 77.2996 1417.21 107.082L1411.61 186.612C1407.09 250.868 1404.83 282.996 1386.58 307.122C1368.32 331.249 1338.02 342.157 1277.42 363.973L1208.08 388.934C1179.73 399.138 1158.98 423.744 1153.67 453.401C1140.84 525.092 1151.58 599.109 1184.33 664.165C1197.9 691.139 1224.89 708.77 1255.05 710.365L1329.97 714.327C1395.7 717.803 1428.56 719.541 1453.28 737.977C1478 756.414 1489.04 787.421 1511.11 849.434L1536.27 920.121C1546.4 948.57 1570.99 969.413 1600.71 974.736C1672.4 987.573 1746.32 976.812 1811.37 944.067C1838.34 930.49 1855.97 903.5 1857.56 873.344L1861.52 798.417C1865 732.685 1866.74 699.818 1885.17 675.099C1903.61 650.38 1934.61 639.343 1996.62 617.27L2067.3 592.109C2095.75 581.983 2116.59 557.388 2121.91 527.663C2134.75 455.971 2123.99 382.05 2091.24 316.995C2077.67 290.021 2050.68 272.389 2020.52 270.795L1945.6 266.833C1879.87 263.357 1847.01 261.619 1822.29 243.182C1797.57 224.746 1786.53 193.739 1764.46 131.726L1739.3 61.0389C1729.18 32.589 1704.58 11.7464 1674.86 6.42363Z" fill="url(#paint1_linear_430_53)"/>
<defs>
<linearGradient id="paint0_linear_430_53" x1="-197.118" y1="4.73407" x2="-55.6995" y2="976.498" gradientUnits="userSpaceOnUse">
<stop stop-color="#24262B"/>
<stop offset="1" stop-color="#797F91" stop-opacity="0"/>
</linearGradient>
<linearGradient id="paint1_linear_430_53" x1="1567.06" y1="4.7383" x2="1708.54" y2="976.494" gradientUnits="userSpaceOnUse">
<stop stop-color="#797F91" stop-opacity="0"/>
<stop offset="1" stop-color="#24262B"/>
</linearGradient>
</defs>
</svg>
