<svg width="24" height="25" viewBox="0 0 24 25" fill="none" xmlns="http://www.w3.org/2000/svg">
<path d="M9.33187 5.26908C7.48099 4.74026 5.51902 4.74026 3.66814 5.26908L3.58193 5.29372C2.71697 5.54085 2.04085 6.21696 1.79372 7.08192L1.73292 7.29473C1.22774 9.06286 1.22774 10.9371 1.73292 12.7053C2.03644 13.7676 3.00742 14.5 4.11226 14.5H4.94374C5.06269 14.5 5.12585 14.5001 5.17194 14.5018L5.17851 14.5021L5.18005 14.5084C5.19071 14.5533 5.20325 14.6152 5.22657 14.7319L5.73738 17.2859C5.79225 17.5605 5.84667 17.8328 5.91585 18.0599C5.99364 18.3152 6.11431 18.6016 6.35175 18.8582C6.47648 18.993 6.61919 19.11 6.77586 19.2059C7.07408 19.3884 7.37858 19.4506 7.6442 19.4768C7.88039 19.5001 8.15807 19.5 8.43808 19.5L9.16627 19.5C10.1362 19.5 10.964 18.7988 11.1235 17.842L11.178 17.5147C11.7314 14.1945 11.7314 10.8055 11.178 7.48527L11.1476 7.30284C10.9857 6.33126 10.2789 5.53968 9.33187 5.26908Z" fill="white"/>
<path d="M14.6681 5.26908C16.519 4.74026 18.481 4.74026 20.3319 5.26908C21.2789 5.53968 21.9857 6.33126 22.1476 7.30284L22.178 7.48527C22.7314 10.8055 22.7314 14.1945 22.178 17.5147L22.1235 17.842C21.964 18.7988 21.1362 19.5 20.1663 19.5L19.4381 19.5C19.1581 19.5 18.8804 19.5001 18.6442 19.4768C18.3786 19.4506 18.0741 19.3884 17.7759 19.2059C17.6192 19.11 17.4765 18.993 17.3517 18.8582C17.1143 18.6016 16.9936 18.3152 16.9158 18.0599C16.8467 17.8328 16.7923 17.5605 16.7374 17.286L16.2266 14.7319C16.2032 14.6152 16.1907 14.5533 16.1801 14.5084L16.1785 14.5021L16.1719 14.5018C16.1258 14.5001 16.0627 14.5 15.9437 14.5H15.1123C14.0074 14.5 13.0364 13.7676 12.7329 12.7053C12.2277 10.9371 12.2277 9.06286 12.7329 7.29473L12.7937 7.08192C13.0409 6.21696 13.717 5.54085 14.5819 5.29372L14.6681 5.26908Z" fill="white"/>
</svg>
