<svg width="30" height="27" viewBox="0 0 30 27" fill="none" xmlns="http://www.w3.org/2000/svg">
<path d="M30.0005 14C30.0005 12.6753 29.6247 11.3777 28.9167 10.2581C28.2086 9.13846 27.1974 8.24274 26.0005 7.675V6.5C25.9996 5.21141 25.5839 3.95735 24.8148 2.92339C24.0458 1.88943 22.9644 1.13052 21.7305 0.758963C20.4967 0.387405 19.176 0.422944 17.9639 0.860323C16.7518 1.2977 15.7127 2.11368 15.0005 3.1875C14.2882 2.11368 13.2491 1.2977 12.037 0.860323C10.8249 0.422944 9.50423 0.387405 8.27037 0.758963C7.03652 1.13052 5.95507 1.88943 5.18606 2.92339C4.41704 3.95735 4.00134 5.21141 4.00045 6.5V7.675C2.80337 8.24261 1.79194 9.13827 1.08371 10.2579C0.375474 11.3775 -0.000488281 12.6752 -0.000488281 14C-0.000488281 15.3248 0.375474 16.6225 1.08371 17.7421C1.79194 18.8617 2.80337 19.7574 4.00045 20.325V20.5C4.00134 21.7886 4.41704 23.0426 5.18606 24.0766C5.95507 25.1106 7.03652 25.8695 8.27037 26.241C9.50423 26.6126 10.8249 26.5771 12.037 26.1397C13.2491 25.7023 14.2882 24.8863 15.0005 23.8125C15.7127 24.8863 16.7518 25.7023 17.9639 26.1397C19.176 26.5771 20.4967 26.6126 21.7305 26.241C22.9644 25.8695 24.0458 25.1106 24.8148 24.0766C25.5839 23.0426 25.9996 21.7886 26.0005 20.5V20.325C27.1964 19.7561 28.2068 18.86 28.9147 17.7407C29.6226 16.6213 29.999 15.3244 30.0005 14ZM10.0005 24.5C9.01358 24.4994 8.06175 24.134 7.32798 23.4741C6.59422 22.8142 6.13031 21.9063 6.02545 20.925C6.34795 20.9758 6.67398 21.0009 7.00045 21H8.00045C8.26567 21 8.52002 20.8946 8.70756 20.7071C8.89509 20.5196 9.00045 20.2652 9.00045 20C9.00045 19.7348 8.89509 19.4804 8.70756 19.2929C8.52002 19.1054 8.26567 19 8.00045 19H7.00045C5.8221 18.998 4.68232 18.5799 3.7822 17.8194C2.88207 17.059 2.27945 16.0051 2.08064 14.8436C1.88183 13.6821 2.09961 12.4878 2.69557 11.4712C3.29152 10.4547 4.22735 9.68131 5.33795 9.2875C5.53228 9.21591 5.69999 9.08645 5.81845 8.91658C5.93691 8.74671 6.00043 8.5446 6.00045 8.3375V6.5C6.00045 5.43913 6.42188 4.42172 7.17202 3.67157C7.92217 2.92143 8.93959 2.5 10.0005 2.5C11.0613 2.5 12.0787 2.92143 12.8289 3.67157C13.579 4.42172 14.0005 5.43913 14.0005 6.5V16.0375C12.9056 15.0439 11.4789 14.4955 10.0005 14.5C9.73524 14.5 9.48088 14.6054 9.29334 14.7929C9.10581 14.9804 9.00045 15.2348 9.00045 15.5C9.00045 15.7652 9.10581 16.0196 9.29334 16.2071C9.48088 16.3946 9.73524 16.5 10.0005 16.5C11.0613 16.5 12.0787 16.9214 12.8289 17.6716C13.579 18.4217 14.0005 19.4391 14.0005 20.5C14.0005 21.5609 13.579 22.5783 12.8289 23.3284C12.0787 24.0786 11.0613 24.5 10.0005 24.5ZM23.0005 19H22.0005C21.7352 19 21.4809 19.1054 21.2933 19.2929C21.1058 19.4804 21.0005 19.7348 21.0005 20C21.0005 20.2652 21.1058 20.5196 21.2933 20.7071C21.4809 20.8946 21.7352 21 22.0005 21H23.0005C23.3269 21.0009 23.653 20.9758 23.9755 20.925C23.8933 21.6937 23.5902 22.4222 23.1027 23.0222C22.6152 23.6223 21.9643 24.0682 21.2287 24.306C20.4931 24.5438 19.7043 24.5634 18.9578 24.3624C18.2113 24.1613 17.5391 23.7482 17.0224 23.1731C16.5058 22.5979 16.1669 21.8854 16.0467 21.1217C15.9265 20.358 16.0303 19.5758 16.3453 18.8699C16.6604 18.1639 17.1733 17.5643 17.822 17.1437C18.4707 16.7231 19.2274 16.4995 20.0005 16.5C20.2657 16.5 20.52 16.3946 20.7076 16.2071C20.8951 16.0196 21.0005 15.7652 21.0005 15.5C21.0005 15.2348 20.8951 14.9804 20.7076 14.7929C20.52 14.6054 20.2657 14.5 20.0005 14.5C18.522 14.4955 17.0953 15.0439 16.0005 16.0375V6.5C16.0005 5.43913 16.4219 4.42172 17.172 3.67157C17.9222 2.92143 18.9396 2.5 20.0005 2.5C21.0613 2.5 22.0787 2.92143 22.8289 3.67157C23.579 4.42172 24.0005 5.43913 24.0005 6.5V8.3375C24.0005 8.5446 24.064 8.74671 24.1825 8.91658C24.3009 9.08645 24.4686 9.21591 24.663 9.2875C25.7736 9.68131 26.7094 10.4547 27.3053 11.4712C27.9013 12.4878 28.1191 13.6821 27.9203 14.8436C27.7215 16.0051 27.1188 17.059 26.2187 17.8194C25.3186 18.5799 24.1788 18.998 23.0005 19ZM6.50045 13.5C6.23523 13.5 5.98088 13.3946 5.79334 13.2071C5.60581 13.0196 5.50045 12.7652 5.50045 12.5C5.50045 12.2348 5.60581 11.9804 5.79334 11.7929C5.98088 11.6054 6.23523 11.5 6.50045 11.5C7.16248 11.4967 7.79646 11.2323 8.26459 10.7641C8.73272 10.296 8.99717 9.66203 9.00045 9V8C9.00045 7.73478 9.10581 7.48043 9.29334 7.29289C9.48088 7.10536 9.73524 7 10.0005 7C10.2657 7 10.52 7.10536 10.7076 7.29289C10.8951 7.48043 11.0005 7.73478 11.0005 8V9C11.0005 10.1935 10.5263 11.3381 9.68243 12.182C8.83852 13.0259 7.69393 13.5 6.50045 13.5ZM24.5005 12.5C24.5005 12.7652 24.3951 13.0196 24.2076 13.2071C24.02 13.3946 23.7657 13.5 23.5005 13.5C22.307 13.5 21.1624 13.0259 20.3185 12.182C19.4746 11.3381 19.0005 10.1935 19.0005 9V8C19.0005 7.73478 19.1058 7.48043 19.2933 7.29289C19.4809 7.10536 19.7352 7 20.0005 7C20.2657 7 20.52 7.10536 20.7076 7.29289C20.8951 7.48043 21.0005 7.73478 21.0005 8V9C21.0037 9.66203 21.2682 10.296 21.7363 10.7641C22.2044 11.2323 22.8384 11.4967 23.5005 11.5C23.7657 11.5 24.02 11.6054 24.2076 11.7929C24.3951 11.9804 24.5005 12.2348 24.5005 12.5Z" fill="white"/>
</svg>
